<?xml version="1.0" encoding="UTF-8" standalone="no"?>
<!DOCTYPE svg PUBLIC "-//W3C//DTD SVG 1.1//EN"
 "http://www.w3.org/Graphics/SVG/1.1/DTD/svg11.dtd">
<!-- Generated by graphviz version 3.0.0 (20220226.1711)
 -->
<!-- Title: G Pages: 1 -->
<svg width="250pt" height="354pt"
 viewBox="0.00 0.00 249.55 354.38" xmlns="http://www.w3.org/2000/svg" xmlns:xlink="http://www.w3.org/1999/xlink">
<g id="graph0" class="graph" transform="scale(1 1) rotate(0) translate(4 350.38)">
<title>G</title>
<polygon fill="white" stroke="transparent" points="-4,4 -4,-350.38 245.55,-350.38 245.55,4 -4,4"/>
<!-- customer -->
<g id="node1" class="node">
<title>customer</title>
<ellipse fill="none" stroke="black" cx="43.55" cy="-302.83" rx="43.59" ry="43.59"/>
<text text-anchor="middle" x="43.55" y="-299.13" font-family="Times,serif" font-size="14.00">customer</text>
</g>
<!-- address -->
<g id="node5" class="node">
<title>address</title>
<ellipse fill="none" stroke="black" cx="49.55" cy="-170.59" rx="37.09" ry="37.09"/>
<text text-anchor="middle" x="49.55" y="-166.89" font-family="Times,serif" font-size="14.00">address</text>
</g>
<!-- customer&#45;&#45;address -->
<g id="edge5" class="edge">
<title>customer&#45;&#45;address</title>
<path fill="none" stroke="black" d="M45.51,-259.19C46.28,-242.57 47.14,-223.72 47.88,-207.78"/>
<text text-anchor="middle" x="57.05" y="-230.09" font-family="Times,serif" font-size="14.00">has</text>
</g>
<!-- product -->
<g id="node2" class="node">
<title>product</title>
<ellipse fill="none" stroke="black" cx="147.55" cy="-170.59" rx="37.89" ry="37.89"/>
<text text-anchor="middle" x="147.55" y="-166.89" font-family="Times,serif" font-size="14.00">product</text>
</g>
<!-- category -->
<g id="node4" class="node">
<title>category</title>
<ellipse fill="none" stroke="black" cx="97.55" cy="-40.95" rx="40.89" ry="40.89"/>
<text text-anchor="middle" x="97.55" y="-37.25" font-family="Times,serif" font-size="14.00">category</text>
</g>
<!-- product&#45;&#45;category -->
<g id="edge4" class="edge">
<title>product&#45;&#45;category</title>
<path fill="none" stroke="black" d="M123.07,-141.67C117.09,-133.52 111.33,-124.27 107.55,-114.89 103.38,-104.58 100.89,-92.85 99.42,-81.86"/>
<text text-anchor="middle" x="136.05" y="-103.69" font-family="Times,serif" font-size="14.00">belongs to</text>
</g>
<!-- discount -->
<g id="node6" class="node">
<title>discount</title>
<ellipse fill="none" stroke="black" cx="196.55" cy="-40.95" rx="40.09" ry="40.09"/>
<text text-anchor="middle" x="196.55" y="-37.25" font-family="Times,serif" font-size="14.00">discount</text>
</g>
<!-- product&#45;&#45;discount -->
<g id="edge3" class="edge">
<title>product&#45;&#45;discount</title>
<path fill="none" stroke="black" d="M160.81,-135.05C167.5,-117.62 175.61,-96.48 182.42,-78.75"/>
<text text-anchor="middle" x="207.05" y="-103.69" font-family="Times,serif" font-size="14.00">maybe has a</text>
</g>
<!-- producer -->
<g id="node3" class="node">
<title>producer</title>
<ellipse fill="none" stroke="black" cx="147.55" cy="-302.83" rx="42.49" ry="42.49"/>
<text text-anchor="middle" x="147.55" y="-299.13" font-family="Times,serif" font-size="14.00">producer</text>
</g>
<!-- producer&#45;&#45;product -->
<g id="edge1" class="edge">
<title>producer&#45;&#45;product</title>
<path fill="none" stroke="black" d="M147.55,-260.26C147.55,-243.59 147.55,-224.53 147.55,-208.37"/>
<text text-anchor="middle" x="169.05" y="-230.09" font-family="Times,serif" font-size="14.00">delivers</text>
</g>
<!-- producer&#45;&#45;address -->
<g id="edge2" class="edge">
<title>producer&#45;&#45;address</title>
<path fill="none" stroke="black" d="M122.56,-268.63C106.8,-247.68 86.63,-220.87 71.48,-200.74"/>
<text text-anchor="middle" x="111.05" y="-230.09" font-family="Times,serif" font-size="14.00">has</text>
</g>
</g>
</svg>
